<mxfile host="app.diagrams.net" agent="Mozilla/5.0 (Macintosh; Intel Mac OS X 10_15_7) AppleWebKit/537.36 (KHTML, like Gecko) Chrome/129.0.0.0 Safari/537.36" version="24.7.17">
  <diagram name="Page-1" id="e7e014a7-5840-1c2e-5031-d8a46d1fe8dd">
    <mxGraphModel dx="1188" dy="3250" grid="1" gridSize="10" guides="1" tooltips="1" connect="1" arrows="1" fold="1" page="1" pageScale="1" pageWidth="1169" pageHeight="826" background="none" math="0" shadow="0">
      <root>
        <mxCell id="0" />
        <mxCell id="1" parent="0" />
        <mxCell id="c78ufF9dy-3B9PizpkQD-74" style="edgeStyle=orthogonalEdgeStyle;rounded=0;orthogonalLoop=1;jettySize=auto;html=1;entryX=0;entryY=0.5;entryDx=0;entryDy=0;" edge="1" parent="1" source="c78ufF9dy-3B9PizpkQD-69" target="c78ufF9dy-3B9PizpkQD-41">
          <mxGeometry relative="1" as="geometry" />
        </mxCell>
        <mxCell id="c78ufF9dy-3B9PizpkQD-69" value="" style="shape=image;verticalLabelPosition=bottom;labelBackgroundColor=default;verticalAlign=top;aspect=fixed;imageAspect=0;image=https://upload.wikimedia.org/wikipedia/commons/thumb/1/17/GraphQL_Logo.svg/1200px-GraphQL_Logo.svg.png;" vertex="1" parent="1">
          <mxGeometry x="150" y="165" width="60" height="60" as="geometry" />
        </mxCell>
        <mxCell id="c78ufF9dy-3B9PizpkQD-73" style="edgeStyle=orthogonalEdgeStyle;rounded=0;orthogonalLoop=1;jettySize=auto;html=1;entryX=0;entryY=0.5;entryDx=0;entryDy=0;" edge="1" parent="1" source="c78ufF9dy-3B9PizpkQD-72" target="c78ufF9dy-3B9PizpkQD-42">
          <mxGeometry relative="1" as="geometry" />
        </mxCell>
        <mxCell id="c78ufF9dy-3B9PizpkQD-72" value="" style="shape=image;verticalLabelPosition=bottom;labelBackgroundColor=default;verticalAlign=top;aspect=fixed;imageAspect=0;image=data:image/png,iVBORw0KGgoAAAANSUhEUgAAAgAAAAIACAYAAAD0eNT6AAAAAXNSR0IArs4c6QAAAERlWElmTU0AKgAAAAgAAYdpAAQAAAABAAAAGgAAAAAAA6ABAAMAAAABAAEAAKACAAQAAAABAAACAKADAAQAAAABAAACAAAAAAAL+LWFAABAAElEQVR4Ae29DdBlVXnni1ZPF8NYXC8hDGFa8k6n/UjrtIwhZC4aPU46hJjYGkQyAUVTNpp0kraC1zta0bIIpnQmhRkkZgolMwMZsBKjERKMKDPdMyM9EZxIkCBDGtKQBpFBgpRSSHXp/f+b9zSn3z4fe5+9117P2vv3VD3vOe/+WOtZv7X2Xs/6PEcdhUAAAhCAAAQgAAEIQAACEIAABCAAAQhAAAIQgAAEIAABCEAAAhCAAAQgAAEIQAACEIAABCAAAQhAAAIQgAAEIAABCEAAAhCAAAQgAAEIQAACEIAABCAAAQhAAAIQgAAEIAABCEAAAhCAAAQgAAEIQAACEIAABCAAAQhAAAIQgAAEIAABCEAAAhCAAAQgAAEIQAACEIAABCAAAQhAAAIQgAAEIAABCEAAAhCAAAQgAAEIQAACEIAABCAAAQhAAAIQgAAEIAABCEAAAhCAAAQgAAEIQAACEIAABCAAAQhAAAIQgAAEIAABCEAAAhCAAAQgAAEIQAACEIAABCAAAQhAAAIQgAAEIAABCEAAAhCAAAQgAAEIQAACEIAABCAAAQhAAAIQgAAEIAABCEAAAhCAAAQgAAEIQAACEIAABCAAAQhAAAIQgAAEIAABCEAAAhCAAAQgAAEIQAACEIAABCAAAQhAAAIQgAAEIAABCEAAAhCAAAQgAAEIQAACEIAABCAAAQhAAAIQgAAEIAABCEAAAhCAAAQgAAEIQAACEIAABCAAAQhAAAIQgAAEIAABCEAAAhCAAAQgAAEIQAACEIAABCAAAQhAAAIQgAAEIAABCEAAAhCAAAQgAAEIQAACEIAABCAAAQhAAAIQgAAEIAABCEAAAhCAAAQgAAEIQAACEIBACwSe0UIYBAEBCEAAAukJHKMoXi7dLP2/pN+Q7lvVvfp8XIpAoDIBHIDKqLgQAhCAQBYCxyrW90m3S/19ljygE/ukdgb+RnqPdJ/0LunDUgQChxHAATgMB/9AAAIQCEVgi6z5E+nGhlY9pvvtENg5sP6d1I6Bv++XHpAiEIAABCAAAQgEILBJNrib/3uJ9dsKf5f0fOk6KQIBCEAAAhCAQCYCroi/LE1d+a8N/6uK070OCAQgAAEIQAACGQicqzjXVs5d/e8egVGGNBMlBCAAAQhAYPAEdolAVxX+tHg89LBh8LkAAAhAAAIQgECHBNz971b4tIq5y2NXd5hmooIABCAAAQgMnoAn/3VZ0c+K6zuyg16AHhfHZ/Y4bSQNAhCAQIkE7ABEkPUy4swIhmBDGgLuakIgAAEIDJHAihL9i9KtUn/3+9Cb6dwsvVK6R5pDmq75b9PmF7cZGGFBAAIQgAAEchI4WpFfInUX96zubx+/QZqjC9y2zbOry3N2hBAIQAACEIBA8QTcvV5nff3XdX3X6+KvVZxdVvLz4rq0+BwnARCAAAQgMHgCZ4nAN6XzKrxp5+7XPSd2SO8rS9g4ze42ju3sMN1EBQEIQAACEGiVgMf23ZJtUiHu0v0OpwuJsARwzGpbFwkmDghAAAIQgEDbBDyGf5N0XKE1+by4beOmhOeehiY2tn2vf3oYgQAEIAABCBRFwEvY2v4xndTL4k6XzW1X4k3C84RJpKcEuurS6ik+kgWBVgkcq9COk54w8flsfT9G+o+kPu/vVq/RtlrGz7E/n5A+uaoHJv5/VN//XuqfhX1k9fMhfVr9W/G+ti9iDu+TvidBgrw7npfG7U8QtoPclCjcZYL1kkiXJ6SnBPygIBCAQHoCftZWpH7Be533c6QnS09a/XRX9bhC19dOxQ6DnQC/8O0Q+Hfj/1a6T7p39dOOQwniLvSPS0eJjLWD9ofSV0hTOE3PTWT3MsHetcxN3FMOARyAcvIKS8sg4Gdqs/QUqVuKL5A+T+rKPlcFr6jniu2yI2KdJe41uFN6u/SvpbetfrfjEEVGMsSVs3tQUsrpCvzfSN+RIJJImwDZ+UMgAAEIQGAKAY+PnibdKXXXsJdvLdpcpsl4bMR7tyrNEeQ9MqJr9ttaTridx1ukUfL5XS2nj+CCEaAHIFiGYE5oAu5efrn0x6X/QrpFGrVVL9M6kZs7iWV2JMfrlJ2vM2ZfkuzMHyhk9/LsqxnDJl3/EukLpf7+PKl7iFL3XCiKWuKhIAQCEIDAIAm4cjlLepn0q9IoLbModtwtJjnFvS/3S3Py+LLinzdT3udG0ouk3lp4mY2IcqXPfBEIQAACgyHgl567k2+Sdt2lnOtFv2y812csFVsVd5QNcy5fw8E9RTuk5hPFxmXy2A4w0mMCDAH0OHNJWiUCbqG5+/h10jOl0bphZVJYyTVJbIOIfFJ6TBAyb5Udf7Vqy3n69CTB0sWTPiNN8CydZ0j7cQBCZgtGJSbgisOVvSv9n5UeK0XqE7i3/i2t3PE7CiVann2klZTFCYTx/zh5kcwSHIBkaAk4GAGX9a3SN0pfK43SepQpxcqDGSx3639bhniHFuUDGRLsZ3KT1HstuAfiLukTUgQCEIDAUgS26C7/vnruyWLLjMFGv8e9KF3LdkUYnUtf7POkxVEHGWzH3HGtnXPj+RPXSvswpKJkIBCAQBcE3JJwRRFpTXVfKoXJdIy6yMw1cdiZm7SB7+l57BLzFCsCPIzziYr5+TFdd7QUgQAEIDCVgFv7XrJX0lKrkiuwHC0zz7gvmVnJtnu/hRVpG+Jn1ctI6/BwL8G6NiInDAhAoD8Etikpu6R1XiZc25zXKEMR+gD5nLWcu1vey2SbtMZ36P5ll0deqnsRCEBg4ATcze8Xyd9Iqcy7Z+Cf2XUrrms5RxGS3/kZ+Lmr2wPkZ9a9CE3zz5tzIRCAwAAJHKs0e1c1V0BNXyTcX5+hX/x2vPwyzyHO/2Vbj+R3/fxexMwt8iq9AZt1XVu7aXqIb5MUgQAEBkLAu5JdLGV8v/2X+KKXvM97zb8nVkYYg2UiYJ4yMKucfEXlYl5v0Pk637bTtmgLZkWJQAACpRNwxe9xXyr+PC99L82y45Wrxa+ojxDbwtBPnvIwywlwBW8HcVLcM/Ax6ax7mh532AgEINBDAn7Je7IRFX+6F+iiF7BbWe66jShucbbdqlzEg/OLy+KVyhdX/O6id/lJzexcxYFAAAI9IeAu5h1SNu5J//Kc93J2N3uE7v55xdotznlp4FwePq74u3Lc7QRGdVLnlV3OQQACawhs0/9tTRTi5b/cy98v7pJmWbcxq5yyslxZicLN7wz3GCIQgECBBOzBe5OPKC+UodrxdeXBvMlcEYuWX/w4jTw7dgQRCECgIALHylZ3NXui2VAr3Sjp9ix/j9uWKHYgmQ/AM+QhIQQCECiAgCfvuMUZpQIcsh2u/FekJYuXmg05D0n7U05gaT1YJT9z2A6B2gRWdAfd/XEqKzthbkH3QVIuOaOCjVNm5+WFl4e6ZxGBAAQCEfCM8guldNXGeZF66KXudq6BitQRpnj5WRdLz+ZVQJzLX779C4MIBCAQhIBbmPw0b/4X49rKqY9jpp7H0NUStLU8+T9OGd8Z5N2HGRAYNIEdSj2t/jgvxnEl1edZ0/xgULzyNi53XX26d4v5AAuqnmcuOM9pCCxLYINu9Fj/R6THLBsI9yUhcJ9C/eUkIccI9LEYZmBFRgLrFffvZ4yfqCEwWALeSIZf64vbCtva45LpIQDKXtyy11UPwDieUY/LeuOkrWscAgFA4GkCnoT129JfffoQ31om8KTC+5b0gPSJ1c/v6tPiHj0/01bnhXVt78sf69iN0j6K0+sJYMf1MXGkaSkCr9Zdu5e6cwA34QAMIJM7SuImxeOX7ykdxdenaB5QYqz7Vj+/tvr5kD4fWdVH9Wl1xV9H/IzbCXCl6OVR+6R9lUuVMMpfX3N3uXS9aLnbhnEXDsAw8jl1Kj3pymuwXcEg0wk8rsN3SG+V3r36fa8+75G6JZ9K7DB4TNzaZzlLiXtrnxNI2pYi8Kyl7hrITTgAA8noRMl0+fFvxb8rUfilBuvK3hX9X0i/KL1depe0butdtyAVCJyoa/ht+AqgBniJh8uQGQRwAGaA4fBCAm7tu8v/jIVX9v8Cd9P/V+ku6ZekfymlsheEjuQyxeMhDgQCawnY+UYgAIEWCWxWWN5yczzTdmifXmPsJY47pVukSD4C7vofWvkjvdXzvE87Xbb+lD2j9RAJsO8EzlQC/1B6bN8TuiZ9npB3nfRPpTdK3c2P5CXgyY3+KeCT85rRauwuV54X4r0aPDH0MamPfVe6XuoxbQ95nCTdJD1BikwnsEeHXzr9FEchAIG6BHboBrd+h9ICuV9pdffySMpwmSAEkw/IntLLon+J0fMXzpW6Z62uHK8btkrfI90lHdLzOS/vvfsovXOCgECgDQJ9eNnOe2GMz3kf+SulozagEUYyAisKudQtpl3p+3lKUUG5Z87OhIeohuoMON3nSBEIQKAhAW+u4n3jxxVkXz/9wvSL093KSHwCJZbJm4R1m7Sr3qQNisuOxpB2RvTPW4+kCAQg0JCAWxO7pH2t9P1ivETqsVSkHAJuOZdUJl3xjzLi9XPsIYK+/0qi31WeH4FAAAINCXhs8RZpSS/aqrZ+Rek6X+reDSQ9AfeqmLeHVvySdoXoJaR2vjyvxGPYK9KqLWPfWzWvc17nrv5IXdGuHJ0HOZmkitv7kVQtP7oUgQAEZhHwi8KVZKqHNVe47uZ3ZYN0R8AVfNUuaI/depdE55MnX14odZe5W/zjoZnN+p6r/NSJ93LZ6ZZ3RPEzYOekTnqiXuuy5ZVJCAQg0AIBjxv2bY2/W4yuRJDuCLg11nZL/X6FGb3icoVkpyW62DlpO3+6dhLck+T3FQIBCLRAYEVhuAXW9YOcKj4q/hYKxZJB9LWreV5Zda/ZypK8ct3mXpZ5aYp6zsNHdPnnKjXE2zsC9qT7Uvlfr7TQ4s9XRN0CjlpxpLJrl9LsVnWJcpaMLmVJZSk9LCWWA2weKAGP+feh2z/3bOuBFp8jkn2LjqSqaCOGa4ez9AmlnhcQ3QlwuVqRIhCAQEsEPNvf26lGfLFWtcljw5FmW7eUNUUGs6nwslS1zI2v84TF0iv/cUGzE+CJmOO0Rfr0pNC+cB7z5hMCWQm48i95tr9fVl7+M54hnhUmkR8k4M2UIlUcKW1xi7RvZc+OdEpmy4ZtxxKBAARaIuAXl7vMl30gc9/nlhcvhZYKQ4vBXFRwmapTpt3r1NdNZ7xpUB0WXVzrcoVAAAItEFinMDxu2cWD23Yc3urTrUwkJoErZVbbeR4tPPc8nR4Tf2tWRXs/eJgSgQAEWiDgXx+L9lKtYo8rFw9bIHEJlNyrVKUM+hq3kPsufs7sbFdl0sV13gQKgQAEGhCI2L236OXhF5GXliHxCUSrNBaVrbrnPe7vHrQhiJcH1uWT8vp3DQE6aYRAKgIlTtC6VjD6OtaaKp9zhet5JSkrgNxhu+t/aPtL+PnLzX0c/65cBZt4IVA6AY9ZRl/nO37Q/Wlbd5QOfWD2u3KczMO+fffQ2dBkRQm24xMhL22HnUwEAhCoQcC7/JXUNesJP0NradXIzrCXRusybrPSskM61J4or8Fvk2WTsLaGLf0FGvbMAm3G5HoEvHnGn0hPqHdbtquvUcw/Ir0tmwVEvCyBlWVvLOC+K2TjgwXYmcLE31KgT6YIeIkwX7HEPdwCgcESKGVZlrv3dg42l/qR8MuVjCatu6j3umyu9COLlk5FlJVDNyydAm6EwMAIuEKN+lKdtMs/8EHXXvmF0y/nyXzty3dPhBu6RJnf4XcFAgEILCBwms675RL9JeytiFekSPkE+vJrkmufmW3lZ00rKYjyI0+e04RAAAIzCHgTj3ula19k0f73bmPM6p2RiYUd9tr4EhzOus/AN5Wuoaz7X1TkLtQFdfmluB6HbFFOVTzPJMCKoAq77Pdl78nBbfakqtdIHw9uJ+ZVI7Ciy9ZXu7Soq/5M1h4oyuJ0xl6XLuhaIW+qdTUXzySAAzATTbEnPO4f3UP+Tdl4gZQXa7HF7AjDV4440o8D7qVCniKwVx93BoDx/AA2YAIEwhHYIosid8Patu3hqGFQGwS8aVOK7t7cYW5oA06Pwrg8QD7f0COeWZNCD0BW/K1G7vX+V0ujdsN6HfEvSq+QIv0j8EP9S9JRDyhN+3uYriZJ8o895Zbow5u5+VSOn8ktlVGFv9CbdbwoqJWu/H9B+qmg9mFWcwJ9HJe9tTmW3oUQgYkdAPc43SP1sMQ+6QEpUpMADkBNYEEv9z7/nqEbUVz5v14aZQJRREZ9sKmPrbLb+pAxLafhrpbDWyY4rxz6yMSNfse4p2bsDPytvttO/29lorEgTBMcgGlUyjrmh+HKoCZT+QfNmARmPStBmLmD/LvcBgSM/wnZdJ80ksPnYc+Nq6qPI+QhHbEjcIf081I3RpwOBALFE7hEKcg9UWpW/OcUT5cEVCUQZZOYWWVxmePRV9NUzZu2rys9r/3DaOe2DYXwINA1gdMUoWfWL/NyS32Px+iQ4RCIsld8m+X69OFkX62Uemlkm5xzheUVDQgEiiTg4Rtvo5vr4ZkX77uKJIrRTQicGbQsziuni855WS1yJIFP6NAidqWcv/jI5HEEAvEJuJKN+JBdGh8dFiYi8OWgZXLZ52RzIk6lB+vlxssyjXife1IRCBRDYIMs/bY02sPkX01jYmkxxah1QyMPSS3zrOAATC8ifeoBcLnwkMYghY2Aysx2L4E5JpjpXh/stf4HgtmFOd0RuFlRvVHq1R99kD6ubGgjX6K9e5qmaasCOLZpICXejwNQXq65sEabnewd014tfbw8nFjcMoE/UnivlHrZVekyyEqhQqY9u8I1JV3iZYQvKcngtmzFAWiLZDfhuHv9d7qJqnIsrvR/Trq/8h1c2HcCe5TAH5aeJ/WaazuIJcpJJRrdgc0eguybDDKvXaEg5RDYIVOjbff7dtnkrl8EApMEPBR0zar6uLuNN0lXVj//qT6fJ/UGLt5UZr00mvTx9w2aMnadcWLTQALeP8iNgXAAApbEGSa5O/J9M87lOnyFIrYiEFhEwD1F3lrXulb8HnKr0g6CnYLnSLdKT5XmFNuDHE7A+RPRWTvcyvr/7a9/C3dAoDsCH1BUy8xkTnWPdwPzLxAiEEhB4BwFmqrsVg33qykSVniYEfKlav7Vue74wvMF83tMwK2jSMv+vil7VnrMm6TlJ+Bd+Oq8wFNdy0TAw8tC5K3Hly0Dfp8NUpgEWEa2v09megw1ilwgQ/ZFMQY7ekngviCpGgWxI4oZ/zKKIS3acVeLYREUBFol4HHISPv9e893BAJdEIjQ63VZFwktJA53ky/byo58nzc2GqTQAxA/2y+SiVEm3dwjWzzrH4FAFwRc3nJLtD03cvJ4bc7IE8a9N2HYoYPGAQidPUdtlnlnBzLRu7x5NjcCgS4ITFsx0EW8k3F4iaLnIyBHHfX6nkK4u6fpWpgsHICFiLJe8BuKPUrr/8OyZU9WGkQ+NAL+tcsI8osRjMhsgycin5HZhlTRD7YHIBVQwm1OINLYvz3kSJMQm9MlhBIIbJWREcaOPRdh6KsB/LO5EfIihQ12bhAIhCLgyXYpCvsyYfpFjECgawKudJcprynu8c9vD1Xs/H9DmoJr7jA9wRqBQCgC9kijzPy/MhQZjBkagS8rwbkrCcf/delQe8EuDJIHKcrBoDd7Yg6ASnZA+RXZFGHs/xHZ8Y6AfDBpOAS+ECSpJ8gOV4RDE/fCeC5SXyXCSpO+siVdSxBwK8M7U6XwduuGuWMJ+7kFAm0S2KbA6pbbVNd7LsDQxov7uPPfZPm4tM3CSlgQaEpgpwKYLKC5vnsG9rqmieF+CDQkYIc4ynCYn8VrG6anpNu3BGOf4l3o9y0CgTAE/kaWpCjodcNk4l+YIjF4Q24I8kyMnyH/IE7fxc5/lPkXY+4pPt3DhEAgBIEzZUWKQl43zOtD0MAICDxFwENRdctwyus9RNf3oYC+d/2Py8dmHjIIRCEQoaXj7lYeiiglAjtM4ERppGEAVx59/jnss5S+cQXZ909+0lyZjeQnsCITIjxs3n8AgUA0AhGc47XP59XRILVgz2kKw5Md16a1j//f2wIvgoBAKwQ+oFByP2RDnOXcSuYRSFIC7gFwizv38zEtfneV90U2KSHe72BaOvt4bEgTOvtSRnuZDk+4ifDg8dOnvSxeRSfKk1EjPBvzKkA776WLK3+3iOels2/nzi8907C/HwQ8EzX3w+XWv1taCASiEHiPDIk29j/rOS3ZefZyv/uls9LWx+N2dhj/FwQkPwF3ReV+yEp+geXPQSxok8DxCizimP+iZ/QTstv7FpQkXnnkVQ2L0ta38043AoHsBPyyy93Kcfx9X9aUPaMxoBKB03VVya1Rr513d3oJ4h84yv3uyeFYeFkpAoEQBFwYczwEk3Hygz8hisLgjfBe+32okNyi3h44N+3s3yCdfAdE/L5LNrpHZbPUw6QuH+6p9D4l3jCtbllxtz8tf0FA4hC4Sabkfvj8gCEQyEXgWEUcYRis7efQlWyk3oB1sscNjlK6/LfK1nni9KxIR9LtUk/G9DCMe2H888V2EDyB1A6DzzPmLwhIHAIrMqXtl07d8PySQiCQi4DXnd8trVtuS7neldClUg/15RS3oL8iLYWbG0YIBHpNwGNwuR/IRV52rzOAxGUl4NaoK8jcz0AX8XuVjfcM6HKujVvI3tUv6h4K87iPZDcCgV4TyP1jGx5HQyCQg8DlinReBdDXc3Z43CXtivkYaQrZpEAvknrMu0SO5oNAoNcE/JDmfjh39powiYtKwJVT7rIfIX73Cnjug3tCNkuXFc+h8OQ2j4GX1M0/LQ/sIDVhoduRqgSeUfVCrmudgLv/c+4g9rji/wHpY62njAAhMJvAFp1yl/T62ZcM9oyfxdule6X7pJ7A9rD0CanFXfrPkno+wT+RuhHhytKffZEPKyFv70tiSAcEZhHIPfv/ylmGcRwCCQlcrbCntfw4Bpf7VTbcm4FAoNcETlTqcr/wvOEKAoEuCXgZlru9c5d94o+ZB9u6LIzEddRRzwRCFgI/myXWpyN1F+Oep//lGwQ6IfA8xXJMJzERSWkErpHB15VmdOn24gDkycGfyhPtoVjp/j+Egi8dEjihw7iIqhwCD8jUXy7H3P5YigPQfV56Is8Z3Ud7WIz/+bD/+AcC3RDwxFMEAmsJnKcDfZ2M7J8cXlmbYP4fLoGRkp5zDJIdtoZb9nKnPMLcl5zPHnEf+e67KHehTBi/y7u3XfbkRpY2JgRdUtAXy9icL4KdJcHC1t4RyL35Vc5nj7gPf/fd0LvSfXiC/LsE4zz3bxN4CSwycAJugY8LRY5Pe6UIBHIR2K6Ic5R74ozF3buQ9nnJn1c0rC1zdgL82xfIQAm4wHunq7UFo6v/6f4faMELlGzPgSlxb/quntGhxOMdEPsqbmR5E6dpeekhAZyAvub8nHR5DMg7/00rFF0du3COfZyCQFcENikivwi7KvfEE5P1zq4KXIfx2MH10Ma8MsdwQIcZkisqV/g7pB4HmuUNziskKc75xYtAIAKBs2REijJOmOVwdW9o3zYk8y8+VimDrhN4HwtCX8T7c58j9Rp7z/qsUgi6vIZf/lOmIKEIXCprunwGiCse73tVBvzu7IO4wVenjDntzMkqOOfdyn+X1GPrOcf2qxQ6e6YIBCIRcHdp7kmxVZ4drqlXsdXl1Yef/3Xjb5k6wKti+jwZMtL7phVbPIHDlalb1HULes7rt7aSegKBQLsENig4j4nmfDaIOz9/N6RKlWUr/3G585wBO8NIUAJbZJcrfXfZjDOtpE//AIt/iAWBQEQC/i37kp4nbG0/v9x6HkUsnAtscrf/Mi3/tWXIQ8dIIAJumdgr/ap0bWaV9r89TAQCkQnkXiFT2jPdR3s9Ma6UMXG32N0obDMfSu4FifxuqWybM9XdOa4w2/Dq2iwcTcKiYFUuAlyYiYCfvV3SJuW8zr0MO3THuk6+uAxE7w63k+I6ok66qlzrOse9YUjHBFYUn1sgUZbrVSksda7xvAUEAtEJ+MXaxTPopbnHSLdL++To13knRL7W26VHFVfQKcuo98fYFDXxfbNrqxLkGaiRH4amtrlARfeo+1auSM/yBEa6NVWl7HA9Zjspdo5LndvT9N0Q+f5oLWEvVfQ4fRfMPOzMygBBSCFHK1B7/l+RdpGZueO4IQVEwoRAQgLvUdhtPzd3K8xZPWF+ufe9IdA2z9TheS8V99LkFtcX3kG16yEj91IhLRJwYXJGRtykJ+XDdFGLDAkKAl0RsOPa1nNxrcKqstmMewe8YqateAmnGcucWwW7vnB5yFlfuKGKNCTgrhS3KLr24KI8/NG60hpmJ7cPhIAr7KYvX3f5150Au0n37JJGeX6HbId/NCqHuMx46DQ3ezujXoKOLEHAHpwzcqgV/7jwMpa0ROHhlhAEvE+8K/FxWa7zaeehyT7zbn0N/d1Rh3eKa53366RdS5u9T025eD6A6zKkIgEXGHfdpJyp2TRTu7qf/f8rFhouC0vAz3Ld58Uv8Cpd/osS7TAuky7rhNS1m+uPzGuvDOlaIjkALhOXdw2g1Pi2yfDStuhN+dAzkaTUkozdkwTsBFSphH2Nh/vals0K0M9SymeVsKfzbcORq1seojkALhsM5c7JRT+gu6Q8RIcz8KRHBAJ9IDCuhGc5An5pz5rl31b6Hb4nFPKe6YaBh2BySMS6xENaOZyhHPwrx3mMrrxEOuulMPQHdWtlklwIgTII+CXonr6dq3qWPrvuJnZrbOjvli7Sn6sH07/Q10X66sZxtexCVgn4JdB0lnDdDCjtejxGHhcItE/AjnVp74IS7R21n3WVQoxcr7jeG7TY22c8bvELyLubIRCAQPsEdijIEivUaTa7tRtxfxQPteQSV7JRe5X9XnfP9yDlHKWapTnVXj45H6BBFk4SPRgCHnacVpmWcMwV201SL5HeJB3LSF+iVHpe+pa799LDPFE3hfLv1gxKjlVqu9qHuYSHuIqN7AA4qEeExHZIoLSJgN723MsZPV/C79JZYqegyrsl5TV2Trqe0zGLh52AKE7RJHPb5EmxgxBv5uFuj0kAfF/MY/BjRYN4OkhkDgJRf0fEvaOuQD8mdbf+SDqvwtfpIyTnbyK4Z8X7uEQSO00RnYBdkSClssUeaUT4JTggG1JlCuFCYOAEvqn0R3kH+B3p1mDdin5WFrrrvesGl3lGbrBsl31R8nvSjsjMZpWvSsddmHN6opOQS/zulgACAQi0T8Dd05HeCVvaT+LB/RS6anh5EuJKgjS0HeTFCjBSvtsWz5WI1mPSmLu9WXbza1bYbmicCwQAAQhMI+AhyUgVQaoZ4Ts7SKfnJRw9DXLQY1d2wKRu2doRlNVSZrlLI1L3Wt3MiHL94GaJLlXauAkC9Qmcq1uiPOder55SUi239jveHEsTt7Y9xyJK/tsO/+ZNKidQQXcnnrQSCWwJtniZirvQ7Jl6LNCzVt1FiUAAAmkIXKRgo7wbXBmlFA/F3i1tM72eQOle3lLF79d7pW0yaRqW3/3Fir0qdwU1hdD3+/0gXiv1C8j7Ifgh6t34j9KEQCAygatlXJR3jR3/1OI5Bm2th7e9fWittsmkjbLkOV9FcvX4T6pupjbA5grDkzv8sOyUeszRnjgCAQjkJxCpCzjFLx9OI7xDB5u8C+1AbJ8WcMHHmjJpwnPavcX1Athj2SWdlpghHfN4mCft+WEeSansBQGBQFACHnON8n7qchx92Z4PT+h2i7mPEqnxWlQvgCu5SJ50lw+0K3wvcfSch74+GEoaAoHeEXCjpct3xaK4Uv/88WQGurd2V830u4Lsc4PGaWt7jsSiPJ933r0S4cXQbpHOS0jfznminmfmj6SM2wsCAoECCazI5kjvpq73y7cD5F0GFzFwl38RlZHsbCoeol3Eo6vz7m0JLUOp/L2Jxi7pTumKFIEABMon4BngXb3MF8XjnsRc4p4Hz1FaOxziCsjb+Q5tF1KneVF+dXXeWxeHFHuPfe/236U02vPt2jMPmeEYBYEeEnDF29XLfF487lWMIH7XrUjduBuqeHjEE7fn5VdX51zHhhN3e3uiW1cQuozHGe8ZmEPzepVkBAKDIxBl4pftQOIQGMmULuudeXFtiYPlKUuiPDTzoNU55zEud4F5/AeBAASGQ2CkpNZ5V6S61nvTI7EIuE5Ild91wr08EpZI4yN1IE671jM+PXt/yN1dkcoWtkAgB4EIDZptORJOnHMJeDjEy/Gm1R1dHvMwlYfcs4vHw7tMeKq4PK7iyRXM4M9epDAAAtkJuAHgLW1TvW8WhetKxuPOSDwCUeq87BsvbVXeeDb8osIc+fwu2T+SIhCAAAQmCbi1l2te085JQ/geioAbiV4NkbteuyUnFU+IW7tEJDeQOvG7xT/KCZC4IQCBIgj4dzm6XN1kp4OeyNhFw8MzdeqbVNduzoHJXVP2PlIlKmW47tY7Mwc04oQABIom4B6BkdRdr56g53kCXqrX5rLBXQrPww9IfAIR6sAsE0WjzISs4yi4t8IPLp51/AcLCyFQGgE7B948x3v3+zc//I50ZX6/tMp7yk6ElxrzfhKEQsQNySp5m/IaT1qfK8+Ye7b+yfN1iwt3KfKkDP2o9Dekj5ViNHZCAAK9IeDZ2ivSTav6T/V5stSV/T3S/yn9tPRxKVIWAfcCnJrZ5Jcq/j1d2OAC3GZ3V0rPyGG7u99eOQIBCEAAAhBom4BXjqWuxxaFf1nbiZoWnr3VCGMei2D4vFcmuBvONiMQgAAEIACBFARcx+T+tcB7UyRsbZiebFCl8s19jbftpdW/Nvf4HwIQgAAEUhDwks3c9V7SOm+LEljCev/LZSebZ6Qo4oQJAQhAAALTCHiOR+6hcf8UfRJxF4eXuuT2cObFb/jnJEk9gUIAAhCAAATmE3Djc14dlfqce76TiJempDa+Sfgef3EPBQIBCEAAAhDIQcB1UJN6rI17V9pO+CYFGLnrf5fs8/pbBAIQgAAEIJCTQO5J8v6NglbleoXWhmeSIoyrZRuz/FvNbgKDAAQgAIElCeSeDHjtknZPvS3CLkezHIdLp1rMQQhAAAIQgEAeAu6Nztlj7rlwrTSKHUiEXzua5gBclCdviRUCEIAABCAwl8ANOjut3urq2Olzrat4MndXxixYnpCIQAACEIAABCIS8Fb5s+qvLo43riO9pjHiz/zS8o9Y3LEJAhCAAATGBHIPA7gHopF4C90uPJU6cTDm3yhLuRkCEIAABDoisEvx1Knf2ry20TwAey8OoE2Dmobl2f4IBCAAAQhAoAQCuYfQl94W2NsJNq2w27z/JtnD1r4lFHlshAAEIAABE/D+OW3Wg3XDsgNSW47VHZFa//fLHjb5qZ2N3AABCEAAApkJ5PyFwMN6zZ9ZEYR3EbITEEGelBE/J304gjHYAAEIQAACEKhB4MYa17Z96UvqBuhudre463Y1pLp+e90EcD0EIAABCEAgCIGzZEeq+rFKuLUa865wqwTaxTXXBslAzIAABCAAAQgsQ8DD113Ul7Pi2FrH6Cg/98u4f51c41oIQAACEIhKwD/RO6uCTn38wjGURXMAvGTglPHFmT/fovgZ98+cCUQPAQhAAAKNCXyhcQjLB/Di8a2LHIBfGV+Y+fMqxf/ZzDYQPQQgAAEIQKANAv+jjUCWDGNzlfs8UeDb0tTdEYvC99bDLPmrkmNcAwEIQAACJRDYIiMX1X2pzrteXyhRJv/ZDgQCEIAABCDQFwLrlJCcDeyVRSBv0gWpPJCq4d6yyEjOQwACEIAABAokkLOOPdO8Zs0BWNG5Vn472JE0kHc2uJdbIQABCEAAAlEJ3J7RsI2Oe5YD8IaMho2j/py+7B7/wycEIAABCECgRwT+KmNanu+4ZzkAr8to2Djq946/8AkBCEAAAhDoGYE7MqZnZVbcPlF1jD7Vdez4Nyt3OA4BCEAAAn0gcKISkaoOXRSuNyKaKjt1dNHNqc9HmH8wFQ4HIQABCEAAAi0R+KbCSV2fTgvf8U6VXTo67Yaujjl+BAIQgAAEINB3Ajm32j927RyAY0Q7d+v7sr7nOOmDAAQgAAEIiMDejBQ2rHUAtsqY9RkNekBxX5cxfqKGAAQgAAEIdEXgvq4imhLPSd6NaFJ+YvKfDN//g+I8kCFeooQABNIQ8ESnjdIV6cnS75d6m/Fnr35ONjie1DE//49LH5Q+IvVW4PdI/aK8S8r7QRCQ3hC4N2NKjnAAzshojKO+MnP8fY/ev+54QaBEfle2+KU/Vr/c/17qX318dPXTL39XBl3IDkXyz7uIKGMcXl6biqcbFC9b1R/Xp39J9ARpW2LH4A7pX0g/L71R6mNtiX8k5dfbCqzQcD4mu28u1PYSzU71LFZhcdhv7Pifrib6TYvH2yIiaQmcq+CnsY9+zDNWvS20X07nSzdIU8i1CjQ6i6b2uZJrW05TgM6bb0ib2lfn/u8oPufZNuna3kwdqi0eAq0Tfx+v9TsC6Y7A6YoqVzm6eHIOgA3JKVfnjJy4QxNwl/Gp0u1S9xL9ndQOo/8/WorkIeAK0/nwRanz4jhpl+LhA1f+dgLulroHh/IgCEgxBB7KaOkJkw7Aj2Y0xFF/KnP8RF8WATusbnX6xe9eAaQ7ApsU1Q3Sz0tzNxzGqT5ZXz4i/WvpmeODfEIgOIGcDsBxkw6Ax+5yyR5FnHMsJFe6ibc5gZMUhHsFrpceNqbVPGhCmELArey/kuaeLzTFtIOHNurvn0svl9IbcBAJfwITeEy2PZnJvsP2AXhJJiMc7Z9mjJuo+0HgVUqGu6LdOkXaJ7BOQXqYzq3sY9oPvvUQ36oQ/4vUw0cIBCIT+FYm45417gHwSzPng/JfMwEg2n4RcOvvv0lTTRLsF63qqXFL2j0s51a/JcSVHp6wE1CCwxICGEZkIfBIllhV548dgM2ZDHC0TvzNGeMn6n4R8JCAu4B56beXr3+goKJ2+S9KpSePfnzRRZyHQEYCuXoAjhk7AFsyJp7Wf0b4PY36RUrX7/Q0bV0n612K8OyuI205vm0Kb2fLYRIcBNoi0OZeFnVsOnrsALy4zl0tX/s/Ww6P4CBgAh4DdhcwsjwBNwwuWv72UHd+QNYwNBQqSzBmlcCTmUgcNgcgkw0Hd/XKFTfx9pvAb/U7eclT9+8Vw/rksXQTgYeE6BXqhjWx1COQqwdg3bgHYGM9e1u72p7PX7YWGgFB4HACI/3rXeqQ+gS8lr5vPSgeymCVSP2ywB1pCRxIG/zs0O0AHC89dvYlSc/cpdCfSBoDgQ+dwBuHDmDJ9P/rJe+bd9s9Ovle6SulPyD9h9J/IP1+6Y9JL5B+RpqyS/TtCh+BAAREwA5Arta/M+A2/0EgkJDAWQnD7mvQK0rYqOXEfVDhPV/6fulu6YNSO/9u/fjHn7wS6Arpz0hfKLUjkELOVaDe0wCBwNAJrPODsJKRwlczxk3U7RBwa+31FYNyeTtO6p+Ifa7Um095xn5KOUmBb5LuTRlJz8Ju22n6kPi8uwYj55UdgUukF9a4r8qlLn9bpZ+tcjHXQKDPBPxC9ss4l9yVK2LibZXAdQ1Cc+X8Tqln7aeSlyjgXA7ANYr7l1MlbIlwq0w4+oklwp11yyM68RuzTi44/g6d9x7/bS9D/GmFiQOwAD6nOyPgejiHHHDEHovLJftyRUy8YQi4Yn6b1Dv4XZ3IquclCrdKsAd00WNVLgx0zSkt2uJ9Pp5oEN6v6d4zpG3OU3p5A3u4FQJtE8jqALiLNJd4UhACARNwS9kTwXb6n5blOS2H1+fgvO1vm+8Ej/U3Ed//n6RtlovNCs/pXOuY3KljnojYtpynAEctB7pH4f3HlsN0cJ6LgXRLYH230R2K7Ql7Hl4FkEPcFenJPwgExgS8WcsvSdt+IJ41joDPhQSevfCKehd4+KWp/L4CaNMBcPl6nvS2NYbt1/9XrDnWxr/eaG3URkATYezT9xS2TkTB144I5Ho/PfFMJdAbZOSQpi2DHDYTZ1oCLhN3JIiibYcigYlhgmy7O/J0peyshqlzRf1AwzCe1P2PSD3k9CXpcVIEAhEI5HIAnvTD3rbHXxUoDkBVUsO6zi/oNsegTc8vf6QagbXd4tXumn+Vf0zoaOk18y+be/ZGnX2Z9DHpo6uf39KnK3X///erx3ze6uPj8/6/yuRHXYZAoHMCx3Ye41MRfssOQK7I/dAiEOiCgCsCpBoBP5d2mNrsNXEvoyd4/rr0cumnpQ9L68ib6lzMtRAoiMCzM9n6qIcAckWOR54p14NHe1IC+/4uQZh9DfKAEnZfosSdqnA/Jr1fepP0YumZ0lyNEEWNQCArAfeM5RqGf8w9AG2P+VWl6ZYGAoFJAsfrH1cSbctdbQfY8/BuVfo2JUyjexdOX9VxNJ6B/wXpF6W7pR4KQiDQdwJ+5+WSR3M6ACnGGnOBJN52CHjjlza7nsdW/eX4C5+VCNygq86udGV7F71AQVm3rwb5kD7/u3SX9DPSfVIEAn0jkKLHsyqjrA7Ad6tayXWDIDBSKi9MkFJ3Z9OarAf2z3T5k9IUzlhVS07QhXZCxo6I9wyxI3C9dLeUBoQgIMUTOC5jCr7mOQC5xGONCATcC+VWn1/sKSqcP86M+HzF/53M6j3168iDuvi6Ojd0cO1GxfGr0j+Xfl36Cek50lzjp4oagUBjAhsah7B8AA/75YtAoEsCLnObpadJvfPfq6Qpu8G8iUxuSeHY1EnTMs+5J+iNW9914uriWk8aHPcOeInfp6Ufkd4sRSBQEoEfymjsfr8Y3BLP8YLKEWdG1r2N2vno1tgicUvNrThrV3nvVuwdUqQ+gdt0yxXS7fVv7fQOOwPuZbF+SerdJD8lRSBQAoGTMxr5iB0Aj6X55dy1ePkD0g8CEVuKHsN+dz/wZkuFJ2WeIc35kqqT+FN18Selt0v9C5OflSIQiExgJaNxD3gOQK6x+BxOR0bWRN0xgX+r+Gj9N4Pu7vVXS/1ZkrxIxnqugHumji/JcGwdHAGvfMkhbiDttwPwrRyxK85cGxBlSi7Rdkhgj+K6qMP4+hyVhwJeJ328wESeLZv/Wrq1QNsxuf8E7JwelymZ9zleOwC5vHscgEw53/No9yp9r5Hm6tnqI94blaifkT5SYOJOkM1eYbKjQNsxud8Enpcxefc4bjsAj2Yywg8mAoE2Cbjyf6X04TYDJayDBHbr749Ibz34X1l/POnUqwQuLMtsrO05gc0Z05e9BwAHIGPu9zDq3UrT/yPd38O0RUnSPhnyo9L3Sj2GWJp4P4RzSzMae3tL4MUZU3a3487ZA+DlO1YEAk0IuCJyhfSTUlr+TUhWu9dDK++XvlB6TbVbQl3lHyPK2fIKBQNjshJ4ScbY73DcdgAeyGjEhoxxE3X5BP5YSXBF5ArJFRPSHQEPt5wndSvGjkApPQLHyNYrpQgEchJYp8hPyWjAIQfgaxmN2JQxbqIuk4Ad1g9Jnyt9vdQVEZKPwG2K2o6AdzT7TWnOBoWirySn6ipvHIRAIBcB90LZGc0hdtb3OWL3AOz3l0yCA5AJfGHR7pG97ub31sH/ROoNaqj4BSGQ+D3yPukPSn9aeoU08qoBlycEArkIvCxXxIr3LukBx5/bAXi+jUAgsICAN3Zxi3/dgus4nZ+AXyzege8C6T+Wem6Ge2zulEYSNz7OjGQQtgyKgBszucS9dgfFL9ScXXZ+sSMQWETAk0XdZWv9ktStt1K2eb1Ktr5NmlMOevsZDHC8N66qe202SF8ufcXqZ65d0BT9QfkF/S2lHK2azEdPCLwsYzr+1zhuOwD7pY9Lc4xH4ACMc6LcT48neSze4t938EveL/it0hRlyuO33ub1GqlbmS670eWJ6AZ2ZJ/fNc43q8U7odkh8N4NI2nX74OfVZwIBLomsKIIN3Yd6UR8fznx/eDXr+jv9zLpprXG8H8yAucmyGP/1v00cavd6659PlXZ2qWw7XS0JdcqoLZtZcZ59dzxu8Cb9dyUIB9m5asnY6WWyxTBrPiXPX51aqMJPxmB7QnKQ51y5HfzQfEcAEvO8bmcayGfSj1/UxB4TIG629fb8rqXIIWMFOgfStelCJwwOyewVzF+SPpS6XOlvytN3cPTda+DkoQMnMBPZUz/PYrb7+aDMnYA/ODlEj/sSH8JeIz1VxImb5vC/jcJwyfoPAT8Tvo1qfd52JPQhJxdsQmTRdBBCbixckZG2/5iMu5xy8lDALnk9FwRE29nBK5QTK+WurJOIe429sSW8dhyijiGHKa7DI+TTn76x7ys37f6Of7f1/j7f5R+WNpU9imAn5B63sdI2rZ8f9sBEh4E5hAY6ZyfkVzi4bVDMnYAbj10pPsvWxSlgRzqlujeBGLsgIBnwo+kqQr/xxS2y/HBHa70idQjsFOXu6J1/rgC96cn6S2bXz+ue9twABTMUZ5E6Ymm/1tqR6RNWd9mYIQFgQUE3BDKKbsnIx8PAdylg6nH2ibjnfzuB3A0eYDvvSTwoFL1gYQp84oDT4waO7UJo+pl0O5q3yYdSU+RbpQuW/nr1qNe4j8tysMK63daDG8c1HfHX/iEQAcEXttBHLOieEQnDmsgjR2AAzphJyCXuOWB9J/Av1MS70uYTFdc70oYfp+D/tuWE2cHou0Z9te1bKODeyxBmAQJgWkEPNx98rQTHR07bPzfcY4dAH+/2X8ySc5JEZmSPMho3ZWbegvWdyuOEwdJt1miD2sZNAvq0N3uUWhTHmgzsNWwvpYgTIKEwDQCb5p2sMNjN6yNa9IBOGxywNoLE///AoW/KXEcBB+DwDUy4/aEpngowE4AUo9AigbAW2RCm0MyR9dLUqWrc/Z8VjKQi3pBwM/B2ZlTcuPa+CcdgD1rT3b8f9uthY7NJ7qKBDzc9BsVr132sl/SjRuWvXmg9z2odHuNcJtip/7cFgN8eYthjYO6dfyFTwgkJHCWwj4uYfiLgr5PFxzRyzfpAOzVBZ4kkEtelyti4u2cgMdydyeMdb3Cfl/C8Psa9GcSJMwT91ZaCrft/STulF2eXIhAIDUB94bllM9Ni3xt99wXdFGulrgnSKxI90mR/hP410riFxMm83yF7Q2C7NjmFLeCd+Q0YErcn9Ixt/jXyvU68KtrDzb8360er+H3fv/T4qwa/IW60O+INiWFw9OmfYTVDwJ+B5yROSl+BhfKTl3xvYzKDO6FWdToAnfHtp2/32lg0ScS2DOZPi8LrCMpfgtg0p4o30+bAcUNgvulKey8W+HOineGOYcOp3ovbTkUQ9ovlyn4tpnWLdtpU0jo8whcmiD/65Snbyt+z406QiaHAHzyxiOu6PbAed1GR2yZCXiy3pMJbbDDszlh+H0L+oAS9B8SJWqjwv0f0sulbhFVEeednTK/QNsWz3m6re1ACQ8Cawgcq//fvOZY1/+6Xn98WqT2+CflDv3zkPSEyYMdfvcPc7iVcHOHcRJVPgLunv9P0rcmNMGbD/kHiZBqBD6iy9zdfky1y2td5bkZzmvrl6T/XfpV6X6pl4geLd0g/WGpJ/ydKk0ll6QKmHAhMEFgh77bCcgpn6wTubuW6nQvtH2tt3RF0hCINgTgVHrNvruo2i5Hk+HZqawiQx8CGDPK3WU5mXcpvt8yTmhHnwwBdAQ6WDR2or8uTVGGq4bpIVpv6T1V1g4B+CK/BHPKOYo8t8eUM/1Di9sTwz6UONEXJw6/b8Gb1yN9S9REetpeTTARNF8hcIjAL+lbrt70sRG79WXmSpdpDsBndUPKcdmxYbM+Xflvn3WS470k8NtK1UMJU3aGwh4lDL9vQfuF8et9S9Rqeuxs3tzTtJGsOATc+vdKp9xy5TwDpjkAj+mG3fNu6uCcPfS18xM6iJYoMhFwmfutxHGnDj+x+Z0Hf5Vi/OPOY00b4R4FH+GlnDaVhB6BgMtZ7ta/36ufngdjmgPg670eOKdsVORn5TSAuDsn8HuK8Z6EsZ6usM9MGH4fg36LEnVnTxJ2n9Lhzca80gGBQEoCnsj6/6aMoGLYrvwfn3ftLAfgj+bd1NE5LxFDhkPAL+bUec5cgHrlyS2In5Y+UO+2cFfb/p+Qer4JAoHUBNzb6CGA3PIHiwyY5QD4Qdm96ObE5/3TrtsSx0HwsQjY8fTysFTiZWX0LNWju0+X2wkodVLg7bL9x6R7pQgEUhMYKQLvQppbXN5vXGTELAfA93k5YG65KLcBxN85gdS9APbOmV9SL1tv0+UlVqLXrNrtfQYQCKQmcLQi+PepI6kYfiU75jkAHj/IuRrA6XQvwDn+ggyGgL3WzyVM7QsUNmWqPmC3KF4svaL+rZ3f8ZBi/HmpdxadOwbauWVE2GcC/pVTv19yi8v8VVWMmOcAeCmQlwTmFlpsuXOg+/jfmThKzwWgF6A+ZL9YLpC+VLpbGk1s3welz5VGmMcUjQ/2pCPgScb/X7rga4Xs1TuuvxfKPAfAN1fqRlgYS7MLNun2Hc2C4O7CCLjL2d23qWSjAn5zqsAHEO4epdG/7mdHwPnkijen3KfI3yv9QamHkDx5EYFAVwS8d40n3K3vKsIF8bS2zbVbSfdLq247mOq6b8qGmdsZLoDB6acJnKuvbefRd54OvtVvKwrNYbdt7zg8l2uP2U2Kd8Ecn+/z52mTiW7hu1+A50i96UhX74u/UVzeYnckjd6bw1bAyqQey9VKW5T3xQ11OD+jwsXuLn1PhetSX/JRRfC21JH0PPxjlL6TEqTR48MpZIMCXVtJtxnPfgX2xESAJ+r7syb+7+vXteluO50rCvAlUs8Z2CRdWVU78XVbSW7Nu4Xv/QisX5beLHUaShGn+9ktG/sthfdgy2ESXH0CF+qW1lrc9aM/4g73zO0+4uiMA1UcAL+E/VvedR/cGVE2Ouwuxz2NQuBmCEAgJwH3FpwgtTNq586f66RjOaAvHlLwssOHpHTnCwISksBWWeVN8yLUjQb0JemP+kvb8gkFGKGL46uyY/Jl0XY6CQ8CEIAABCCwiMAmXfANaYR6cWzDtkVGL3veMxzHkeT+vGjZRHAfBCAAAQhAoCEBD+l4DkruunAy/lsapmnh7Y5gMsJc3z0xrO1JTAsTzwUQgAAEIDB4Ah6yilIXTtbBZ6bOGc/ynYww53cPBTgjEAhAAAIQgEAXBDz87Fn2Oeu+aXHf1EXiHYcr3mkG5Dh2eVeJJh4IQAACEBg0AU9Y9YS/HHXdojg9RN+J+EcOFhnT5Xn3SiAQgAAEIACBVAQiV/7eg6AzcReIlwR2WcnPi8sbBG3uLPVEBAEIQAACQyIQufL/tjLCy/Q7lWi9AB6W8NpiBAIQgAAEINAWAc/29/j6vEZoznNZVsS5FyDSXABngMdmbBcCAQhAAAIQaEpgRQFEq+cmnQ0vQ3TvRBY5S7FOGhPh+6VZSBApBCAAAQj0iYCXmX9dGqFem2XDKDfwiF0jO3NDIX4IQAACECiWgIe4PbY+q+KNcPxjEehG2h1wMlNYGRChdGADBCAAgXIIeAjZvciTdUnE7+6Z8NyEEOIlCNEgeafAZHsih6COERCAAAQg0BYBz6TfJY1Wl02z58y2Et1GOAYXsbvENm1tI4GEAQEIQAACvSXg+WzRftRnWsXvY5dFzIV3yahZBuc8bicglLcUMfOwCQIQgMAACXgree8mm7OOqhP3V2Rrtln/88pHxGWBY7AeDrCHh0AAAhCAAARMYCSN9mt+4zpr2qcbs1ukYSXqhEDDtBOwPSw5DIMABCAAgS4IeMO4klr9Y2fAKxPCi8cnxgZH/Lw4PEEMhAAEIACBFATcE3y/NGLdNM8mOyxFiL2re6XzEpP73CdkHz8jXERxwkgIQAACjQn4t2JukOaubFzQKQAAGABJREFUe5aJ33vthBz3n5UrowJAezLFplkJ4DgEIAABCBRPwA1Sr+v3EPAylW/ue9yYPlFanFwii3PDWxS/f0WQDYOKK1oYDAEIQGAuAffwemVaKUv7ptVVrp9CT/qblwPusnAre1rCoh3zlooMCczLTc5BAAIQiE/Aq9F2SEsc55+sF91jsTU+7vkW2nuJuEHQJOjx97tl62h+cjgLAQhAAAIBCbjB6Yrf7/HxO73kz05XrD0jYYY6ISF+tKBiGj+q694pfazi9VzWnID3tP7z5sEkCeEPFOqHk4TcfaCeBHVc99FmifFJxWp9fFUf1eeD0v8j3S/du6o+H112ysA3BjHy47LjQ0FssRnuuf0l6TukJ0n7IO9WIj7Yh4SM0xDxtwLmeYf+oYVOPbAxqIF+2nOflx85z7lF0RcpeTw0VRlw/npV0IXS06TrpNEk0nwqL/OOIN5+3ku6+1amnde9E3tppcwHmHzR3CK7t/YuN+IlyJwnuUf7PoqHbCmL+vayTFFOPPHKDoEnB/u9FUFwAJ7OhdP11Q3KUmf1zyuzUZyrp2m3+G2Twir1BeSuUxc8pH0CmxXkvIciwrkr2092lhBLff5ylQHPX/LwpXsGcsrQHYBjBd89stEbCk3K6eU5C1hXcZ+piEr23HbJfqcBaY9ApJfbrAfYFUGU1mAT8jgAyzubORsBkZ6RLlupIxV2O9+lTCSf9f5YdLxLpk3eH63c6wkti4BEP/9VpWGH1J4psjwBj7d6vkX0/LZ9RezDvSArcACal7VrxXhlAee2Tw/RAfDzVsJ7oamNl7ZdWJYJ75nL3LTkPZ5R/btL3hvlthfIkI9Ivya1hzqSIvUJvEq3nFD/tix3/GKWWIk0GoFtMuivpW7IIOkIrE8XdJiQ3ytL3h7Bmi4dAKf316XXRUh4QxvcLWxPdZf0Xqk99dzjhTKhGImytKkKsJEuWqlyIdf0noCfe7fcrpfSC9j77E6SwF9RqO9PEvISgXbtAByQjT8v3bOErVFvOVmGeSnRF6Xu1vbkobOkvCAEYYp47b9bUyUJvQAl5VZ6W92D9b+knuCMQKAKgcd10eukv1fl4q6u6doBcLqekP609Hb/0zNxt7ZnrX5S+n+knr26WYo8TeBcfS2tm+8NT5vPNwgcJODK37/WxvNNgVhE4CFd8JPSTy26sOvzORwAp/ExqYHc6X96Kq7kTpW6hwB5mkCJremNMn/0dBL4BoGDBOzwexiQngAKxCwCbuj+mDRkr3cuB8CwHpTaCbjH/yCDILBFqTyl0JSW6LgUiroos+0EeDtrD20hEJgk4Plurvz3TR6M9D2nA2AO+6WvkOIEmEb/5U0FJ/Fs2X5MwfZjejoC7gG4Ml3whFwgAc/0f4308ci253YAzGbsBPR5OCByGejKtnWKqOSxdFf+dgIQCEwj8Cod9GRgZNgEHlHyPcft/SVgiOAAmJOdgFdKPV6C9JOAX5DuLi1ZGAYoOffS2/4BRbEpfTTEEJTAbtn1Yulng9p3hFlRHAAb5jkBL5WGnCxhA5FGBN7S6O4YN49kxkoMU7AiIAFP/PVGYciwCDyp5P6m1HPa3JgtRiI5AIY2Xh3gyRNIfwh4glRffkuBXoD+lMsUKTlDgW5NETBhhiTg+WvuvX6f1PvcFCXRHADD86QJb5jwu/4H6QWBEtf+zwJf8jyGWWnieLsELmo3OEILSuCjsuufSYvttY7oADiv7Un9mtT7Jbt7BSmbQJ9azRuVFaOyswPrExM4XeFbkX4SuE/Jcnf/26ShZ/kvwh/VARjb/WF98VIKz6xEyiRQ8tr/WcT75NDMSiPHmxHwnu9I/wi4Tvph6Y19SFp0B8CMPaPSmymwQsA0ypM+TP5bS/1sHWBPgLVU+H+SwGv1z7GTB/heNIFbZb0nqbtXuuhW/2QulOAA2N69UjsBV/kfpBgC62RpH8fM2ROgmCKYzVCXkZ/NFjsRt0XAE9Nd6f+otNix/lkwSnEAbL+9Lu8kZ3WmIPEJbJOJx8U3cykLGQZYCtugbvq5QaW2X4n13LOPSn9I6m5/z0vrnbiFVpq4F8Ce2Melp5Zm/MDsLXnr30VZNdIFK9J9UqQ6gXfoUvfoLRK/m6xHS4+Xfr/UP6y1eVXX6zO6/MvoBmLfVAKf09F3Sm+bepaDIQj45fAe6Xek3wusfVn/LsS15ERdHT1vmpabi2oRyXfxNxR107S2df9pLWCwUzCSXir9urQt21KE40mwy8olujGFTcuEedmyiah53/aMaf6y4t5a096iLy9pCGAtaHfJvF/qsZkvrT3J/9kJnCsLSmilNQH1hiY3c+/SBJ7QnbulHpv9Qaln3EcdFmzD4VHykIQE3CP189J/Lr0xYTzhgi7ZARjDdDeNnYDIL4GxrUP6HMIY+UZl6GhImRowrXYGfk/6QqlnakeTF0czCHsOEXDF/yapl/X90aGjA/rSBwdgnF1+CTxfetX4AJ/ZCLjV86JssXcb8RAcnW6JLhfbft32Cumdy92e7K6hPAfJACYI2GVkXPG7vjiQII4iguyTA2DgD0qdsV4y6ImCSB4Cb8wTbZZYvd7bS76Q/AQ8DPBqaaThgOflx4IFqwRcJ7xG6hb/oCv+VR5H9c0BGKfrZn3xpg0e13E3D9IdAU/Q8vh/15Lrpe/NXrwxEBKDgJ/3SJMzT5I962KgGaQVTyrV10lfKXWd4O/IKoG+OgDjDPa4jr29C6T3jQ/ymZRArrX//06pyuUEMAyQtEjVDvzDuuOB2nelu8HLGJFuCfhd8CGph4Xd6t8tRdYQ6LsD4OR6fOcKqTd0sCNAj4AgJBQPweSQP1Skn8sRseIcSVekSAwC42c+hjVHHXVCFEMGYIcngnpC+A9IvefEPikyg8AQHIBx0scvBfcIeGjA40FIuwROVHA51tH6N7nvkP5pu8mpFRq9ALVwJb/4k8ljqB7Bs6pfypVLEHBr3408z/3yUj5PCH9ciiwgMCQHYIzCjoCHBjwe5AJzjdTjREhzAm9WEOubB1M7hE+v3vEZfebKyzfUtpobUhK4TYG7YoggTBJNkwu7Fax7HN3ad++u534hNQgM0QGYxOMCc570B6XvlroliSxPIFf3/7jl/7BMz9Wzs1Fxj5ZHx50JCER5npkE2F7m3q6g/K5+jtQT+66S0toXhGVk6A7AmJmXD35Q6nkCLlQflUZpPciUIuQ0WfmCDJY+oji/MBHv2BmYONTZV4YBOkNdKaJHK13FRdEJeN3+b0q92dM/k/pdvV+KNCSAA3AkwN069DbpP5Z69qiHCHAGBGGBvGXB+VSnP6uAPawzluvGXzJ8vlZx0t2bAXzwKCfLZ3BTw5jnlr4rfe+k6Hlb75PeIUVaJEDX1GyYT+iUKxPr0dKR9GekXubmXyVDniZgPrnWwl/7tBkHv+3VX7cYcvRGHKt4zeEqKZKfwLPzm3DQArqoq2fEbl36XKmfYyQxAXoAqgG2M+CW5q9JPV/AXVFvl35GSu/AU07RcWLRtXjCn/NlrThfcgnDALnIHxnvxiMPZTnyrSyxlhmpK34q/47yDgdgOdDuivqw1D0C3yf1agI7BB4uiDLxSKZ0Jrm6/3crhdMcsJzzAEayaUWK5CWwRdG7RyaCPBLBCGyAwFoCDAGsJVL//wO6xasJJpegnKj/T5GeKr1P2mfZoMSNMiVwbff/2AxPCvRLN0evhG1wL4DHLJF8BH4hX9RHxPzgEUc4AIEABOgBSJMJfuDdNf1+qXsL+ixvUOJyrP030+tmgLVT9mczznVx2EyQfATc8n9rvugPi/kB/efyiEAgHAEcgHBZUpxBudb+3ypS++fQmtU7MOeW1k5tVEij1kIjoLoELtYNuXp/1tp619oD/A+BKARwAKLkRJl2nC6zc8y2N61Zrf8xyRv1xZMEcwmTAfOQ36Zod+aJemqst089ykEIBCCAAxAgEwo2IVfr38iuX8DtMZ3fveCalKfZEyAl3elhb9Xhj08/le3oX2WLmYghsIAADsACQJyeSeBonflXM8+mPeFx1clJl7NiyzkM4HHos2cZxvHWCbjVb6cw2kZMe1pPKQFCoCUCOAAtgRxgMGcpza7kckjVCX6LhglS284wQGrCT/365E2K5lLp+vTR1YrhEV3d90nAtYBwcSwC62KZgzUFEcjZ/f8nFTl5kqAnC3pJZg4ZKdIV6T4p0g4Bt/BPk/6U9BzpRmlUmbZJVVRbsWuABHAABpjpLSR5g8I4o4Vwlgmi7ti+ewtyOQBOH3sCHJ7L3jxr0+GHjvjP76VnSf3pjba8r8aK1Ftwu8KP1tKXSVMl5xDUVIM4CAEIQKApgfcogO9l0k/UNN6txVy2Ot67a9qb4vJvZGaQk3+uuL8t5k3nI1wSKN8uS1EwCTMvAeYA5OVfauxvymh43W1+PVnwgYz2usU6yhg/Uech8GlF+3ieqIkVAtUI4ABU48RVTxPw2v9FXbhPX93uN6/r/8wSQVadNLhE0JVuYTJgJUy9uugjvUoNieklARyAXmZr0kTlrMz2KGUPL5G6qpMGlwi60i2v1VVNu4MrRcRFIQi4nFoRCIQmgAMQOnvCGedKzDOvc0nd7v+xnbv1JWd3LHsCjHNiGJ/eihiBQHgCOADhsyiUgW7J5lr7bxDLrut/Qvd6a+CckrPnJGe6hxb3biWY5X9Dy/VC04sDUGjGZTL7gkzxOto7pXsbxP/JBve2cetIgay0ERBhhCXgOSpvD2sdhkFgDQEcgDVA+HcmgRWdGc08m/6EZ1U3kWUmDzaJb9q99AJMo9KfYx9SUm7rT3JISd8J4AD0PYfbS98b2gtqqZCWHf8fR+bJg7knZuVmOGbBZ/sEblWQ720/WEKEQDoCOADp2PYt5Jyt14cE0+v5m0pTJ6Jp/BsVwKhpINwfjoD3/H+99EA4yzAIAnMI4ADMgcOpQwRG+ubKK5d4UlUbL9dlJxG2me6cjlSb6SCspwh43P886V6AQKA0AjgApeVYHntzV1pt7al+h/DdkwfhoVjZE+AQil588cRYZv33IiuHlwgcgOHled0Ue+2/K61c4vX7bb5gc+8KyJ4AuUpS+/G68r+q/WAJEQLdEMAB6IZzybGcLeNzrv3frfjb3MQn966ALgu5e1RsA7I8AZfH10mvWD4I7oRAfgI4APnzILoFuSurtivsLwi4J23llJEiX8lpAHEvTeA+3flK6aeWDoEbIRCEAA5AkIwIasaK7Bpltq3tLntPJmxzSGFZPG9Y9kbuy0bgGsX8I9I2VqRkSwQRQ2BMAAdgTILPaQRyt/6/JKMenGZYw2NtTSpsYkZutk1sH9q9njj6Gqln+y/zY1RD40V6CyGAA1BIRmUyM3crNVVF7R4AL9/KKRsV+SinAcS9kICHit4tfaE0whLShQZzAQTqEMABqENrWNeOlFxXUjkl1Uv3MSVqd86ErcZNL0CATJhiwl4d857+z5F+UPqEFIFA7wjgAPQuS1tLUO7Kyd2ut7WWmiMDuv7IQ50fYU+AzpHPjNBO4VXSV0qfK/2wtM3VJwoOgUAsAjgAsfIjijVe++/lfznlM4kjvy5x+FWC9/LK3Jyr2NnXa25XwlzR/6T0+6Rvku6WIhAYBIF1g0gliaxL4FzdYCcgp7xMkaeaAzBOl+cBrB//k+nTPS1ueSLpCLglf5f0DulXpJ5c6pn8bvUjEBgsARyAwWb93ITn7v63caes6lxDe3BypDSsSPdJhyDueWlzZYfH5w9I7cx9W+pK/VHpQ9IHVpWZ+wKBQGAtARyAtUT4f5MQnA6GTgl4tcX7O40xX2S/pajd+kYgAIHMBJgDkDkDAkbvcVCkWwIRely6TTGxQQAC2QngAGTPgnAGnB/Oov4btFFJHPU/maQQAhCIRAAHIFJu5Ldlq0w4Ob8Zg7SAXoBBZjuJhkA+AjgA+dhHjJlKKF+usCdAPvbEDIFBEsABGGS2T02016S7EkLyEGBPgDzciRUCgyWAAzDYrD8i4efoSO61/0cYNbAD9MAMLMNJLgRyEsAByEk/VtxUPvnzYyQTVvKbgQUQgMAQCOAADCGXF6eRtf+LGXV1hfcEQCAAAQgkJ4ADkBxxERG8pQgrh2EkPTHDyGdSCYHsBHAAsmdBdgPWyQLW/mfPhkMGbNS30aH/+AIBCEAgEQEcgERgCwrWa/9PKsjeIZh63hASSRohAIG8BHAA8vKPEPsbIxiBDYcRYEXGYTj4BwIQSEEAByAF1XLCZO1/zLxiT4CY+YJVEOgVARyAXmVn7cR4xjlr/2tj6+QGJgN2gplIIDBcAjgAw817p5yx5rj5P5JpG+Kah2UQgEDpBHAASs/B5e3frFtPX/527uyAwJs7iIMoIACBgRLAARhoxivZTP6Ln/cMA8TPIyyEQLEEcACKzbpGhrP2vxG+zm7eqJjopekMNxFBYFgEcACGld/j1LL2f0wi/ie9APHzCAshUCQBHIAis62x0Wz92xhhZwGwJ0BnqIkIAsMigAMwrPx2ao+XbhtesotNMXs1FJt1GA6B2AQ8FowMi4BblOsDJPlJ2XBPADtmmXCcTpww62THxy9QfNd0HCfRQQACPSeAA9DzDJ6SvChjytfJttdPsS/KIc+T+HwQY0ayw3sC7A9iD2ZAAAI9IMAQQA8ysUYSvPb/1BrXp7z0T1IG3kLYuxXGYy2E01YQb24rIMKBAAQgYAI4AMMqB1Em/7n7/8+Coz8g+z4XyMYoPTeBkGAKBCDQhAAOQBN6Zd3r4R7v/R9B9siISK3rWUwi9VJslJHsCTArpzgOAQjUJoADUBtZsTe8SpZHmdQWqWKdl6HuAXBvRRShFyBKTmAHBHpAAAegB5lYMQmRtv71BMAS5GEZ6d6KKMKeAFFyAjsg0AMCOAA9yMQKSYi09v922buvgs1RLvnTKIbIDvYECJQZmAKB0gngAJSeg9XsP1eXRVj7b2s/Xc3kMFdF6614UxgyGAIBCBRNAAeg6OyrbHykseNILeoqAPfqojurXNjRNWcoHu8JgEAAAhBoRAAHoBG+Im7eIitPCWLpQ7Lj5iC21DEjWq/Fm+sYz7UQgAAEphHAAZhGpV/Hoqz9N9Vo3elVczparwXDAFVzjusgAIGZBHAAZqLpxQmv/f9XgVISrSKtisa9Fu69iCKbZAh7AkTJDeyAQKEEcAAKzbiKZr9K10VZ+/+4bPG6+hLFuwJ+NpjhkeZ1BEODORCAQBUCOABVKJV7TaTu/xuF8YlyUR51bTDb2RMgWIZgDgRKI4ADUFqOVbfXa//PrH558itL7f4fg3EPQKRdAdkTYJwzfEIAAksRwAFYClsRN0Va+29g0X/8Z1GmegjDvRiRhMmAkXIDWyBQGAEcgMIyrIa5kcaIvZ3ugzVsj3rp9cEMY0+AYBmCORAoiQAOQEm5Vd3WSGv/bXXp3f9j8hGXMb55bByfEIAABOoQ8DIxpH8EjlOS3h8oWf85kC1NTNmvm98h/b+bBNLyvVV6Vn5bcf6jluNdNrgHlr1xgPd9Xmn20FMEuSWCEdgAAQhAAAIQgAAEIAABCEAAAhCAAAQgAAEIQAACEIAABCAAAQhAAAIQgAAEIAABCEAAAhCAAAQgAAEIQAACEIAABCAAAQhAAAIQgAAEIAABCEAAAhCAAAQgAAEIQAACEIAABCAAAQhAAAIQgAAEIAABCEAAAhCAAAQgAAEIQAACEIAABCAAAQhAAAIQgAAEIAABCEAAAhCAAAQgAAEIQAACEIAABCAAAQhAAAIQgAAEIAABCEAAAhCAAAQgAAEIQAACEIAABCAAAQhAAAIQgAAEIAABCEAAAhCAAAQgAAEIQAACEIAABCAAAQhAAAIQgAAEIAABCEAAAhCAAAQgAAEIQAACEIAABCAAAQhAAAIQgAAEIAABCEAAAhCAAAQgAAEIQAACEIAABCAAAQhAAAIQgAAEIAABCEAAAhCAAAQgAAEIQAACEIAABCAAAQhAAAIQgAAEIAABCEAAAhCAAAQgAAEIQAACEIAABCAAAQhAAAIQgAAEIAABCEAAAhCAAAQgAAEIQAACEIAABCAAAQhAAAIQgAAEIAABCEAAAhCAAAQgAAEIQAACEIAABCAAAQhAAAIQgAAEIAABCEAAAhCAAAQgAAEIQAACEIAABCAAAQhAAAIQgAAEIAABCEAAAhCAAAQgAAEIQAACEIAABCAAAQhAAAIQiE/g/wcvVHdZhxSQnwAAAABJRU5ErkJggg==;" vertex="1" parent="1">
          <mxGeometry x="150" y="575" width="60" height="60" as="geometry" />
        </mxCell>
        <mxCell id="c78ufF9dy-3B9PizpkQD-49" value="Infrastructure" style="shape=hexagon;perimeter=hexagonPerimeter2;whiteSpace=wrap;html=1;fixedSize=1;size=138;verticalAlign=top;" vertex="1" parent="1">
          <mxGeometry x="290" y="140" width="577.5" height="520" as="geometry" />
        </mxCell>
        <mxCell id="c78ufF9dy-3B9PizpkQD-48" value="Application" style="shape=hexagon;perimeter=hexagonPerimeter2;whiteSpace=wrap;html=1;fixedSize=1;size=90;verticalAlign=top;" vertex="1" parent="1">
          <mxGeometry x="383.75" y="230" width="380" height="340" as="geometry" />
        </mxCell>
        <mxCell id="c78ufF9dy-3B9PizpkQD-47" value="Domain&lt;div&gt;Business Logic&lt;/div&gt;" style="shape=hexagon;perimeter=hexagonPerimeter2;whiteSpace=wrap;html=1;fixedSize=1;size=40;verticalAlign=top;" vertex="1" parent="1">
          <mxGeometry x="483.75" y="315" width="190" height="170" as="geometry" />
        </mxCell>
        <mxCell id="c78ufF9dy-3B9PizpkQD-61" style="edgeStyle=orthogonalEdgeStyle;rounded=0;orthogonalLoop=1;jettySize=auto;html=1;entryX=0;entryY=0.5;entryDx=0;entryDy=0;" edge="1" parent="1" source="c78ufF9dy-3B9PizpkQD-41" target="c78ufF9dy-3B9PizpkQD-43">
          <mxGeometry relative="1" as="geometry" />
        </mxCell>
        <mxCell id="c78ufF9dy-3B9PizpkQD-41" value="Resolver" style="rounded=1;whiteSpace=wrap;html=1;" vertex="1" parent="1">
          <mxGeometry x="353.75" y="175" width="90" height="40" as="geometry" />
        </mxCell>
        <mxCell id="c78ufF9dy-3B9PizpkQD-62" style="edgeStyle=orthogonalEdgeStyle;rounded=0;orthogonalLoop=1;jettySize=auto;html=1;entryX=0;entryY=0.5;entryDx=0;entryDy=0;" edge="1" parent="1" source="c78ufF9dy-3B9PizpkQD-42" target="c78ufF9dy-3B9PizpkQD-50">
          <mxGeometry relative="1" as="geometry" />
        </mxCell>
        <mxCell id="c78ufF9dy-3B9PizpkQD-42" value="Controller" style="rounded=1;whiteSpace=wrap;html=1;" vertex="1" parent="1">
          <mxGeometry x="353.75" y="585" width="90" height="40" as="geometry" />
        </mxCell>
        <mxCell id="c78ufF9dy-3B9PizpkQD-66" style="edgeStyle=orthogonalEdgeStyle;rounded=0;orthogonalLoop=1;jettySize=auto;html=1;exitX=1;exitY=0.5;exitDx=0;exitDy=0;entryX=0;entryY=0.5;entryDx=0;entryDy=0;" edge="1" parent="1" source="c78ufF9dy-3B9PizpkQD-43" target="c78ufF9dy-3B9PizpkQD-45">
          <mxGeometry relative="1" as="geometry" />
        </mxCell>
        <mxCell id="c78ufF9dy-3B9PizpkQD-43" value="Service" style="rounded=1;whiteSpace=wrap;html=1;" vertex="1" parent="1">
          <mxGeometry x="423.75" y="265" width="90" height="40" as="geometry" />
        </mxCell>
        <mxCell id="c78ufF9dy-3B9PizpkQD-64" style="edgeStyle=orthogonalEdgeStyle;rounded=0;orthogonalLoop=1;jettySize=auto;html=1;entryX=0.5;entryY=1;entryDx=0;entryDy=0;" edge="1" parent="1" source="c78ufF9dy-3B9PizpkQD-44" target="c78ufF9dy-3B9PizpkQD-43">
          <mxGeometry relative="1" as="geometry" />
        </mxCell>
        <mxCell id="c78ufF9dy-3B9PizpkQD-65" style="edgeStyle=orthogonalEdgeStyle;rounded=0;orthogonalLoop=1;jettySize=auto;html=1;entryX=0.5;entryY=0;entryDx=0;entryDy=0;" edge="1" parent="1" source="c78ufF9dy-3B9PizpkQD-44" target="c78ufF9dy-3B9PizpkQD-50">
          <mxGeometry relative="1" as="geometry" />
        </mxCell>
        <mxCell id="c78ufF9dy-3B9PizpkQD-44" value="Model" style="rounded=1;whiteSpace=wrap;html=1;" vertex="1" parent="1">
          <mxGeometry x="528.75" y="380" width="100" height="40" as="geometry" />
        </mxCell>
        <mxCell id="c78ufF9dy-3B9PizpkQD-45" value="Repository&lt;div&gt;Interface&lt;/div&gt;" style="rounded=1;whiteSpace=wrap;html=1;" vertex="1" parent="1">
          <mxGeometry x="643.75" y="265" width="90" height="40" as="geometry" />
        </mxCell>
        <mxCell id="c78ufF9dy-3B9PizpkQD-63" style="edgeStyle=orthogonalEdgeStyle;rounded=0;orthogonalLoop=1;jettySize=auto;html=1;entryX=0;entryY=0.5;entryDx=0;entryDy=0;" edge="1" parent="1" source="c78ufF9dy-3B9PizpkQD-50" target="c78ufF9dy-3B9PizpkQD-51">
          <mxGeometry relative="1" as="geometry" />
        </mxCell>
        <mxCell id="c78ufF9dy-3B9PizpkQD-50" value="Service" style="rounded=1;whiteSpace=wrap;html=1;" vertex="1" parent="1">
          <mxGeometry x="423.75" y="505" width="90" height="40" as="geometry" />
        </mxCell>
        <mxCell id="c78ufF9dy-3B9PizpkQD-51" value="Repository&lt;div&gt;Interface&lt;/div&gt;" style="rounded=1;whiteSpace=wrap;html=1;" vertex="1" parent="1">
          <mxGeometry x="643.75" y="505" width="90" height="40" as="geometry" />
        </mxCell>
        <mxCell id="c78ufF9dy-3B9PizpkQD-68" style="edgeStyle=orthogonalEdgeStyle;rounded=0;orthogonalLoop=1;jettySize=auto;html=1;entryX=1;entryY=0.5;entryDx=0;entryDy=0;" edge="1" parent="1" source="c78ufF9dy-3B9PizpkQD-56" target="c78ufF9dy-3B9PizpkQD-45">
          <mxGeometry relative="1" as="geometry" />
        </mxCell>
        <mxCell id="c78ufF9dy-3B9PizpkQD-56" value="Repository&lt;div&gt;Implement&lt;/div&gt;" style="rounded=1;whiteSpace=wrap;html=1;" vertex="1" parent="1">
          <mxGeometry x="713.75" y="175" width="90" height="40" as="geometry" />
        </mxCell>
        <mxCell id="c78ufF9dy-3B9PizpkQD-67" style="edgeStyle=orthogonalEdgeStyle;rounded=0;orthogonalLoop=1;jettySize=auto;html=1;exitX=0.5;exitY=0;exitDx=0;exitDy=0;entryX=1;entryY=0.5;entryDx=0;entryDy=0;" edge="1" parent="1" source="c78ufF9dy-3B9PizpkQD-59" target="c78ufF9dy-3B9PizpkQD-51">
          <mxGeometry relative="1" as="geometry" />
        </mxCell>
        <mxCell id="c78ufF9dy-3B9PizpkQD-59" value="Repository&lt;div&gt;Implement&lt;/div&gt;" style="rounded=1;whiteSpace=wrap;html=1;" vertex="1" parent="1">
          <mxGeometry x="713.75" y="585" width="90" height="40" as="geometry" />
        </mxCell>
        <mxCell id="c78ufF9dy-3B9PizpkQD-75" style="edgeStyle=orthogonalEdgeStyle;rounded=0;orthogonalLoop=1;jettySize=auto;html=1;entryX=0;entryY=0.5;entryDx=0;entryDy=0;" edge="1" parent="1">
          <mxGeometry relative="1" as="geometry">
            <mxPoint x="803.75" y="194.44" as="sourcePoint" />
            <mxPoint x="947.75" y="194.44" as="targetPoint" />
          </mxGeometry>
        </mxCell>
        <mxCell id="c78ufF9dy-3B9PizpkQD-76" style="edgeStyle=orthogonalEdgeStyle;rounded=0;orthogonalLoop=1;jettySize=auto;html=1;entryX=0;entryY=0.5;entryDx=0;entryDy=0;" edge="1" parent="1">
          <mxGeometry relative="1" as="geometry">
            <mxPoint x="803.75" y="604.44" as="sourcePoint" />
            <mxPoint x="947.75" y="604.44" as="targetPoint" />
          </mxGeometry>
        </mxCell>
        <mxCell id="c78ufF9dy-3B9PizpkQD-77" value="DB" style="shape=cylinder3;whiteSpace=wrap;html=1;boundedLbl=1;backgroundOutline=1;size=8.999999999999773;" vertex="1" parent="1">
          <mxGeometry x="950" y="576.25" width="40" height="57.5" as="geometry" />
        </mxCell>
        <mxCell id="c78ufF9dy-3B9PizpkQD-78" value="DB" style="shape=cylinder3;whiteSpace=wrap;html=1;boundedLbl=1;backgroundOutline=1;size=8.999999999999773;" vertex="1" parent="1">
          <mxGeometry x="950" y="166.25" width="40" height="57.5" as="geometry" />
        </mxCell>
      </root>
    </mxGraphModel>
  </diagram>
</mxfile>
